<mxfile host="app.diagrams.net" agent="Mozilla/5.0 (Windows NT 10.0; Win64; x64) AppleWebKit/537.36 (KHTML, like Gecko) Chrome/128.0.0.0 Safari/537.36 OPR/114.0.0.0" version="24.9.3">
  <diagram name="PÃ¡gina-1" id="4ZQKy2rgsmekT_aVEUpH">
    <mxGraphModel dx="1643" dy="867" grid="1" gridSize="10" guides="1" tooltips="1" connect="1" arrows="1" fold="1" page="1" pageScale="1" pageWidth="827" pageHeight="1169" math="0" shadow="0">
      <root>
        <mxCell id="0" />
        <mxCell id="1" parent="0" />
        <mxCell id="GmzhZIqiybvobirWpcPO-35" value="" style="rounded=0;whiteSpace=wrap;html=1;strokeColor=none;fillColor=default;" vertex="1" parent="1">
          <mxGeometry x="1420" y="50" width="160" height="1070" as="geometry" />
        </mxCell>
        <mxCell id="GmzhZIqiybvobirWpcPO-27" value="" style="rounded=0;whiteSpace=wrap;html=1;strokeColor=none;fillColor=default;" vertex="1" parent="1">
          <mxGeometry x="1230" y="50" width="160" height="1070" as="geometry" />
        </mxCell>
        <mxCell id="GmzhZIqiybvobirWpcPO-21" value="" style="rounded=0;whiteSpace=wrap;html=1;strokeColor=none;fillColor=default;" vertex="1" parent="1">
          <mxGeometry x="1040" y="50" width="160" height="1070" as="geometry" />
        </mxCell>
        <mxCell id="GmzhZIqiybvobirWpcPO-9" value="" style="rounded=0;whiteSpace=wrap;html=1;strokeColor=none;fillColor=default;" vertex="1" parent="1">
          <mxGeometry x="840" y="50" width="160" height="1070" as="geometry" />
        </mxCell>
        <mxCell id="GmzhZIqiybvobirWpcPO-1" value="" style="rounded=0;whiteSpace=wrap;html=1;strokeColor=none;fillColor=default;" vertex="1" parent="1">
          <mxGeometry x="560" y="20" width="160" height="1140" as="geometry" />
        </mxCell>
        <mxCell id="QOASo2jxXxJM6TGJT9_a-1" value="Client" style="shape=umlActor;verticalLabelPosition=bottom;verticalAlign=top;html=1;outlineConnect=0;" parent="1" vertex="1">
          <mxGeometry x="50" y="40" width="20" height="40" as="geometry" />
        </mxCell>
        <mxCell id="QOASo2jxXxJM6TGJT9_a-3" value="" style="rounded=0;whiteSpace=wrap;html=1;strokeColor=none;fillColor=#dae8fc;" parent="1" vertex="1">
          <mxGeometry x="160" y="29" width="360" height="1140" as="geometry" />
        </mxCell>
        <mxCell id="QOASo2jxXxJM6TGJT9_a-9" value="&lt;h3&gt;&lt;font style=&quot;font-size: 14px;&quot;&gt;GeekShopping MVC&lt;/font&gt;&lt;/h3&gt;" style="rounded=1;whiteSpace=wrap;html=1;fillColor=#eeeeee;strokeColor=#36393d;" parent="1" vertex="1">
          <mxGeometry x="260" y="30" width="160" height="40" as="geometry" />
        </mxCell>
        <mxCell id="QOASo2jxXxJM6TGJT9_a-11" value="" style="endArrow=none;html=1;rounded=0;entryX=0.5;entryY=1;entryDx=0;entryDy=0;exitX=0.5;exitY=0;exitDx=0;exitDy=0;fillColor=#dae8fc;strokeColor=#6c8ebf;" parent="1" source="QOASo2jxXxJM6TGJT9_a-12" target="QOASo2jxXxJM6TGJT9_a-9" edge="1">
          <mxGeometry width="50" height="50" relative="1" as="geometry">
            <mxPoint x="340" y="300" as="sourcePoint" />
            <mxPoint x="390" y="250" as="targetPoint" />
          </mxGeometry>
        </mxCell>
        <mxCell id="QOASo2jxXxJM6TGJT9_a-12" value="&lt;h3&gt;&lt;font style=&quot;font-size: 14px;&quot;&gt;GeekShopping MVC&lt;/font&gt;&lt;/h3&gt;" style="rounded=1;whiteSpace=wrap;html=1;fillColor=#eeeeee;strokeColor=#36393d;" parent="1" vertex="1">
          <mxGeometry x="260" y="1115" width="160" height="40" as="geometry" />
        </mxCell>
        <mxCell id="QOASo2jxXxJM6TGJT9_a-14" value="Client" style="shape=umlActor;verticalLabelPosition=bottom;verticalAlign=top;html=1;outlineConnect=0;" parent="1" vertex="1">
          <mxGeometry x="50" y="1110" width="20" height="40" as="geometry" />
        </mxCell>
        <mxCell id="QOASo2jxXxJM6TGJT9_a-16" value="" style="endArrow=none;html=1;rounded=0;entryX=1;entryY=1;entryDx=0;entryDy=0;exitX=1;exitY=0.3333333333333333;exitDx=0;exitDy=0;fillColor=#dae8fc;strokeColor=#6c8ebf;entryPerimeter=0;exitPerimeter=0;" parent="1" source="QOASo2jxXxJM6TGJT9_a-14" target="QOASo2jxXxJM6TGJT9_a-1" edge="1">
          <mxGeometry width="50" height="50" relative="1" as="geometry">
            <mxPoint x="130" y="630" as="sourcePoint" />
            <mxPoint x="130" y="90" as="targetPoint" />
          </mxGeometry>
        </mxCell>
        <mxCell id="QOASo2jxXxJM6TGJT9_a-17" value="" style="endArrow=classic;html=1;rounded=0;" parent="1" edge="1">
          <mxGeometry width="50" height="50" relative="1" as="geometry">
            <mxPoint x="70" y="110" as="sourcePoint" />
            <mxPoint x="330" y="110" as="targetPoint" />
          </mxGeometry>
        </mxCell>
        <mxCell id="QOASo2jxXxJM6TGJT9_a-19" value="Criar uma conta" style="text;html=1;align=center;verticalAlign=middle;whiteSpace=wrap;rounded=0;" parent="1" vertex="1">
          <mxGeometry x="150" y="80" width="100" height="30" as="geometry" />
        </mxCell>
        <mxCell id="QOASo2jxXxJM6TGJT9_a-21" value="" style="rounded=1;whiteSpace=wrap;html=1;fillColor=#4B0082;strokeColor=#9673a6;" parent="1" vertex="1">
          <mxGeometry x="335" y="100" width="10" height="990" as="geometry" />
        </mxCell>
        <mxCell id="QOASo2jxXxJM6TGJT9_a-23" value="" style="endArrow=classic;html=1;rounded=0;entryX=0.093;entryY=0.142;entryDx=0;entryDy=0;entryPerimeter=0;" parent="1" edge="1">
          <mxGeometry width="50" height="50" relative="1" as="geometry">
            <mxPoint x="344.07" y="130.12" as="sourcePoint" />
            <mxPoint x="634.9999999999999" y="130.00000000000006" as="targetPoint" />
          </mxGeometry>
        </mxCell>
        <mxCell id="QOASo2jxXxJM6TGJT9_a-31" value="" style="endArrow=classic;html=1;rounded=0;" parent="1" edge="1">
          <mxGeometry width="50" height="50" relative="1" as="geometry">
            <mxPoint x="335" y="160" as="sourcePoint" />
            <mxPoint x="70" y="160" as="targetPoint" />
          </mxGeometry>
        </mxCell>
        <mxCell id="QOASo2jxXxJM6TGJT9_a-32" value="" style="endArrow=classic;html=1;rounded=0;" parent="1" edge="1">
          <mxGeometry width="50" height="50" relative="1" as="geometry">
            <mxPoint x="75" y="200" as="sourcePoint" />
            <mxPoint x="335" y="200" as="targetPoint" />
          </mxGeometry>
        </mxCell>
        <mxCell id="QOASo2jxXxJM6TGJT9_a-33" value="Fazer login" style="text;html=1;align=center;verticalAlign=middle;whiteSpace=wrap;rounded=0;" parent="1" vertex="1">
          <mxGeometry x="150" y="170" width="100" height="30" as="geometry" />
        </mxCell>
        <mxCell id="QOASo2jxXxJM6TGJT9_a-37" value="" style="endArrow=classic;html=1;rounded=0;" parent="1" edge="1">
          <mxGeometry width="50" height="50" relative="1" as="geometry">
            <mxPoint x="335" y="260" as="sourcePoint" />
            <mxPoint x="70" y="260" as="targetPoint" />
          </mxGeometry>
        </mxCell>
        <mxCell id="QOASo2jxXxJM6TGJT9_a-38" value="" style="endArrow=classic;html=1;rounded=0;" parent="1" edge="1">
          <mxGeometry width="50" height="50" relative="1" as="geometry">
            <mxPoint x="70" y="300" as="sourcePoint" />
            <mxPoint x="330" y="300" as="targetPoint" />
          </mxGeometry>
        </mxCell>
        <mxCell id="QOASo2jxXxJM6TGJT9_a-39" value="Acessar Home" style="text;html=1;align=center;verticalAlign=middle;whiteSpace=wrap;rounded=0;" parent="1" vertex="1">
          <mxGeometry x="150" y="270" width="100" height="30" as="geometry" />
        </mxCell>
        <mxCell id="QOASo2jxXxJM6TGJT9_a-40" value="" style="endArrow=classic;html=1;rounded=0;entryX=0.105;entryY=0.183;entryDx=0;entryDy=0;entryPerimeter=0;" parent="1" edge="1" target="GmzhZIqiybvobirWpcPO-14">
          <mxGeometry width="50" height="50" relative="1" as="geometry">
            <mxPoint x="345" y="320" as="sourcePoint" />
            <mxPoint x="910" y="320" as="targetPoint" />
          </mxGeometry>
        </mxCell>
        <mxCell id="QOASo2jxXxJM6TGJT9_a-41" value="GET&amp;nbsp;/api/v1/product" style="text;html=1;align=center;verticalAlign=middle;whiteSpace=wrap;rounded=0;" parent="1" vertex="1">
          <mxGeometry x="480" y="290" width="115" height="30" as="geometry" />
        </mxCell>
        <mxCell id="QOASo2jxXxJM6TGJT9_a-42" value="" style="endArrow=classic;html=1;rounded=0;entryX=0.876;entryY=0.096;entryDx=0;entryDy=0;entryPerimeter=0;" parent="1" edge="1">
          <mxGeometry width="50" height="50" relative="1" as="geometry">
            <mxPoint x="910" y="344" as="sourcePoint" />
            <mxPoint x="345" y="344.44" as="targetPoint" />
          </mxGeometry>
        </mxCell>
        <mxCell id="QOASo2jxXxJM6TGJT9_a-43" value="" style="endArrow=classic;html=1;rounded=0;" parent="1" edge="1">
          <mxGeometry width="50" height="50" relative="1" as="geometry">
            <mxPoint x="335" y="360" as="sourcePoint" />
            <mxPoint x="70" y="360" as="targetPoint" />
          </mxGeometry>
        </mxCell>
        <mxCell id="QOASo2jxXxJM6TGJT9_a-44" value="Conta cadastrada com sucesso" style="text;html=1;align=center;verticalAlign=middle;whiteSpace=wrap;rounded=0;" parent="1" vertex="1">
          <mxGeometry x="150" y="130" width="100" height="30" as="geometry" />
        </mxCell>
        <mxCell id="QOASo2jxXxJM6TGJT9_a-45" value="Login realizado com sucesso" style="text;html=1;align=center;verticalAlign=middle;whiteSpace=wrap;rounded=0;" parent="1" vertex="1">
          <mxGeometry x="150" y="230" width="100" height="30" as="geometry" />
        </mxCell>
        <mxCell id="QOASo2jxXxJM6TGJT9_a-46" value="Lista de Produtos" style="text;html=1;align=center;verticalAlign=middle;whiteSpace=wrap;rounded=0;" parent="1" vertex="1">
          <mxGeometry x="150" y="330" width="100" height="30" as="geometry" />
        </mxCell>
        <mxCell id="QOASo2jxXxJM6TGJT9_a-48" value="" style="endArrow=classic;html=1;rounded=0;" parent="1" edge="1">
          <mxGeometry width="50" height="50" relative="1" as="geometry">
            <mxPoint x="70" y="400" as="sourcePoint" />
            <mxPoint x="330" y="400" as="targetPoint" />
          </mxGeometry>
        </mxCell>
        <mxCell id="QOASo2jxXxJM6TGJT9_a-49" value="Acessar Detalhes de um Produto" style="text;html=1;align=center;verticalAlign=middle;whiteSpace=wrap;rounded=0;" parent="1" vertex="1">
          <mxGeometry x="140" y="370" width="100" height="30" as="geometry" />
        </mxCell>
        <mxCell id="QOASo2jxXxJM6TGJT9_a-52" value="" style="endArrow=classic;html=1;rounded=0;" parent="1" edge="1">
          <mxGeometry width="50" height="50" relative="1" as="geometry">
            <mxPoint x="335" y="460" as="sourcePoint" />
            <mxPoint x="70" y="460" as="targetPoint" />
          </mxGeometry>
        </mxCell>
        <mxCell id="QOASo2jxXxJM6TGJT9_a-55" value="Detalhes do Produto" style="text;html=1;align=center;verticalAlign=middle;whiteSpace=wrap;rounded=0;" parent="1" vertex="1">
          <mxGeometry x="150" y="430" width="100" height="30" as="geometry" />
        </mxCell>
        <mxCell id="QOASo2jxXxJM6TGJT9_a-56" value="GET&amp;nbsp;/api/v1/product/{productId}" style="text;html=1;align=center;verticalAlign=middle;whiteSpace=wrap;rounded=0;" parent="1" vertex="1">
          <mxGeometry x="452.5" y="380" width="170" height="30" as="geometry" />
        </mxCell>
        <mxCell id="QOASo2jxXxJM6TGJT9_a-57" value="" style="endArrow=classic;html=1;rounded=0;entryX=0.876;entryY=0.096;entryDx=0;entryDy=0;entryPerimeter=0;exitX=0.093;exitY=0.286;exitDx=0;exitDy=0;exitPerimeter=0;" parent="1" edge="1" source="GmzhZIqiybvobirWpcPO-5">
          <mxGeometry width="50" height="50" relative="1" as="geometry">
            <mxPoint x="601" y="150" as="sourcePoint" />
            <mxPoint x="345" y="150" as="targetPoint" />
          </mxGeometry>
        </mxCell>
        <mxCell id="QOASo2jxXxJM6TGJT9_a-59" value="" style="endArrow=classic;html=1;rounded=0;" parent="1" edge="1">
          <mxGeometry width="50" height="50" relative="1" as="geometry">
            <mxPoint x="70" y="510" as="sourcePoint" />
            <mxPoint x="330" y="510" as="targetPoint" />
          </mxGeometry>
        </mxCell>
        <mxCell id="QOASo2jxXxJM6TGJT9_a-60" value="Adicionar item ao Carrinho" style="text;html=1;align=center;verticalAlign=middle;whiteSpace=wrap;rounded=0;" parent="1" vertex="1">
          <mxGeometry x="145" y="480" width="110" height="30" as="geometry" />
        </mxCell>
        <mxCell id="QOASo2jxXxJM6TGJT9_a-62" value="" style="endArrow=classic;html=1;rounded=0;entryX=0.161;entryY=0.127;entryDx=0;entryDy=0;entryPerimeter=0;" parent="1" edge="1" target="GmzhZIqiybvobirWpcPO-26">
          <mxGeometry width="50" height="50" relative="1" as="geometry">
            <mxPoint x="345" y="530" as="sourcePoint" />
            <mxPoint x="1030" y="530" as="targetPoint" />
          </mxGeometry>
        </mxCell>
        <mxCell id="QOASo2jxXxJM6TGJT9_a-63" value="" style="endArrow=classic;html=1;rounded=0;entryX=0.876;entryY=0.096;entryDx=0;entryDy=0;entryPerimeter=0;exitX=0;exitY=0.25;exitDx=0;exitDy=0;" parent="1" edge="1" source="GmzhZIqiybvobirWpcPO-26">
          <mxGeometry width="50" height="50" relative="1" as="geometry">
            <mxPoint x="1030" y="550" as="sourcePoint" />
            <mxPoint x="345" y="550" as="targetPoint" />
          </mxGeometry>
        </mxCell>
        <mxCell id="QOASo2jxXxJM6TGJT9_a-64" value="" style="endArrow=classic;html=1;rounded=0;" parent="1" edge="1">
          <mxGeometry width="50" height="50" relative="1" as="geometry">
            <mxPoint x="335" y="570" as="sourcePoint" />
            <mxPoint x="70" y="570" as="targetPoint" />
          </mxGeometry>
        </mxCell>
        <mxCell id="QOASo2jxXxJM6TGJT9_a-65" value="POST /api/v1/cart" style="text;html=1;align=center;verticalAlign=middle;whiteSpace=wrap;rounded=0;" parent="1" vertex="1">
          <mxGeometry x="448.75" y="500" width="177.5" height="30" as="geometry" />
        </mxCell>
        <mxCell id="QOASo2jxXxJM6TGJT9_a-66" value="" style="endArrow=classic;html=1;rounded=0;" parent="1" edge="1">
          <mxGeometry width="50" height="50" relative="1" as="geometry">
            <mxPoint x="70" y="620" as="sourcePoint" />
            <mxPoint x="330" y="620" as="targetPoint" />
          </mxGeometry>
        </mxCell>
        <mxCell id="QOASo2jxXxJM6TGJT9_a-67" value="Acessar Carrinho" style="text;html=1;align=center;verticalAlign=middle;whiteSpace=wrap;rounded=0;" parent="1" vertex="1">
          <mxGeometry x="150" y="590" width="110" height="30" as="geometry" />
        </mxCell>
        <mxCell id="QOASo2jxXxJM6TGJT9_a-68" value="" style="endArrow=classic;html=1;rounded=0;" parent="1" edge="1">
          <mxGeometry width="50" height="50" relative="1" as="geometry">
            <mxPoint x="345" y="640" as="sourcePoint" />
            <mxPoint x="1110" y="640" as="targetPoint" />
          </mxGeometry>
        </mxCell>
        <mxCell id="QOASo2jxXxJM6TGJT9_a-69" value="" style="endArrow=classic;html=1;rounded=0;entryX=0.876;entryY=0.096;entryDx=0;entryDy=0;entryPerimeter=0;exitX=0.077;exitY=0.88;exitDx=0;exitDy=0;exitPerimeter=0;" parent="1" edge="1" source="GmzhZIqiybvobirWpcPO-26">
          <mxGeometry width="50" height="50" relative="1" as="geometry">
            <mxPoint x="1020" y="660" as="sourcePoint" />
            <mxPoint x="345" y="660" as="targetPoint" />
          </mxGeometry>
        </mxCell>
        <mxCell id="QOASo2jxXxJM6TGJT9_a-70" value="GET /api/v1/cart/{userId}" style="text;html=1;align=center;verticalAlign=middle;whiteSpace=wrap;rounded=0;" parent="1" vertex="1">
          <mxGeometry x="462.5" y="610" width="150" height="30" as="geometry" />
        </mxCell>
        <mxCell id="QOASo2jxXxJM6TGJT9_a-71" value="Item adicionado ao Carrinho" style="text;html=1;align=center;verticalAlign=middle;whiteSpace=wrap;rounded=0;" parent="1" vertex="1">
          <mxGeometry x="150" y="540" width="110" height="30" as="geometry" />
        </mxCell>
        <mxCell id="QOASo2jxXxJM6TGJT9_a-72" value="" style="endArrow=classic;html=1;rounded=0;entryX=0.876;entryY=0.096;entryDx=0;entryDy=0;entryPerimeter=0;" parent="1" edge="1">
          <mxGeometry width="50" height="50" relative="1" as="geometry">
            <mxPoint x="335" y="680" as="sourcePoint" />
            <mxPoint x="79" y="680" as="targetPoint" />
          </mxGeometry>
        </mxCell>
        <mxCell id="QOASo2jxXxJM6TGJT9_a-73" value="Lista de itens salvos no Carrinho" style="text;html=1;align=center;verticalAlign=middle;whiteSpace=wrap;rounded=0;" parent="1" vertex="1">
          <mxGeometry x="150" y="650" width="110" height="30" as="geometry" />
        </mxCell>
        <mxCell id="QOASo2jxXxJM6TGJT9_a-74" value="" style="endArrow=classic;html=1;rounded=0;" parent="1" edge="1">
          <mxGeometry width="50" height="50" relative="1" as="geometry">
            <mxPoint x="70" y="730" as="sourcePoint" />
            <mxPoint x="330" y="730" as="targetPoint" />
          </mxGeometry>
        </mxCell>
        <mxCell id="QOASo2jxXxJM6TGJT9_a-75" value="Usar Cupom" style="text;html=1;align=center;verticalAlign=middle;whiteSpace=wrap;rounded=0;" parent="1" vertex="1">
          <mxGeometry x="150" y="700" width="120" height="30" as="geometry" />
        </mxCell>
        <mxCell id="QOASo2jxXxJM6TGJT9_a-76" value="" style="endArrow=classic;html=1;rounded=0;entryX=0.132;entryY=0.418;entryDx=0;entryDy=0;entryPerimeter=0;" parent="1" edge="1" target="GmzhZIqiybvobirWpcPO-47">
          <mxGeometry width="50" height="50" relative="1" as="geometry">
            <mxPoint x="345" y="750" as="sourcePoint" />
            <mxPoint x="1300" y="750" as="targetPoint" />
          </mxGeometry>
        </mxCell>
        <mxCell id="QOASo2jxXxJM6TGJT9_a-77" value="GET&amp;nbsp;&lt;div&gt;/api/v1/coupon/{couponCode}&lt;/div&gt;" style="text;html=1;align=center;verticalAlign=middle;whiteSpace=wrap;rounded=0;" parent="1" vertex="1">
          <mxGeometry x="1115" y="710" width="200" height="30" as="geometry" />
        </mxCell>
        <mxCell id="QOASo2jxXxJM6TGJT9_a-78" value="" style="endArrow=classic;html=1;rounded=0;entryX=0.876;entryY=0.096;entryDx=0;entryDy=0;entryPerimeter=0;exitX=0;exitY=0.75;exitDx=0;exitDy=0;" parent="1" edge="1" source="GmzhZIqiybvobirWpcPO-47">
          <mxGeometry width="50" height="50" relative="1" as="geometry">
            <mxPoint x="1220" y="770" as="sourcePoint" />
            <mxPoint x="345" y="770" as="targetPoint" />
          </mxGeometry>
        </mxCell>
        <mxCell id="QOASo2jxXxJM6TGJT9_a-81" value="" style="endArrow=classic;html=1;rounded=0;entryX=0.876;entryY=0.096;entryDx=0;entryDy=0;entryPerimeter=0;" parent="1" edge="1">
          <mxGeometry width="50" height="50" relative="1" as="geometry">
            <mxPoint x="335" y="780" as="sourcePoint" />
            <mxPoint x="79" y="780" as="targetPoint" />
          </mxGeometry>
        </mxCell>
        <mxCell id="QOASo2jxXxJM6TGJT9_a-82" value="Desconto aplicado ao Carrinho" style="text;html=1;align=center;verticalAlign=middle;whiteSpace=wrap;rounded=0;" parent="1" vertex="1">
          <mxGeometry x="145" y="750" width="120" height="30" as="geometry" />
        </mxCell>
        <mxCell id="QOASo2jxXxJM6TGJT9_a-85" value="" style="endArrow=classic;html=1;rounded=0;" parent="1" edge="1">
          <mxGeometry width="50" height="50" relative="1" as="geometry">
            <mxPoint x="75" y="830" as="sourcePoint" />
            <mxPoint x="335" y="830" as="targetPoint" />
          </mxGeometry>
        </mxCell>
        <mxCell id="QOASo2jxXxJM6TGJT9_a-86" value="Fazer um Pedido" style="text;html=1;align=center;verticalAlign=middle;whiteSpace=wrap;rounded=0;" parent="1" vertex="1">
          <mxGeometry x="140" y="800" width="120" height="30" as="geometry" />
        </mxCell>
        <mxCell id="QOASo2jxXxJM6TGJT9_a-89" value="" style="endArrow=classic;html=1;rounded=0;entryX=0.087;entryY=0.34;entryDx=0;entryDy=0;entryPerimeter=0;exitX=0.926;exitY=0.747;exitDx=0;exitDy=0;exitPerimeter=0;" parent="1" edge="1" target="GmzhZIqiybvobirWpcPO-34" source="QOASo2jxXxJM6TGJT9_a-21">
          <mxGeometry width="50" height="50" relative="1" as="geometry">
            <mxPoint x="350" y="840" as="sourcePoint" />
            <mxPoint x="1110" y="840" as="targetPoint" />
          </mxGeometry>
        </mxCell>
        <mxCell id="QOASo2jxXxJM6TGJT9_a-91" value="" style="endArrow=classic;html=1;rounded=0;entryX=0.886;entryY=0.768;entryDx=0;entryDy=0;entryPerimeter=0;exitX=-0.016;exitY=0.641;exitDx=0;exitDy=0;exitPerimeter=0;" parent="1" edge="1" source="GmzhZIqiybvobirWpcPO-34">
          <mxGeometry width="50" height="50" relative="1" as="geometry">
            <mxPoint x="1111" y="860" as="sourcePoint" />
            <mxPoint x="344.8599999999999" y="860.3200000000002" as="targetPoint" />
          </mxGeometry>
        </mxCell>
        <mxCell id="QOASo2jxXxJM6TGJT9_a-92" value="" style="endArrow=classic;html=1;rounded=0;entryX=0.876;entryY=0.096;entryDx=0;entryDy=0;entryPerimeter=0;" parent="1" edge="1">
          <mxGeometry width="50" height="50" relative="1" as="geometry">
            <mxPoint x="333" y="900" as="sourcePoint" />
            <mxPoint x="77" y="900" as="targetPoint" />
          </mxGeometry>
        </mxCell>
        <mxCell id="QOASo2jxXxJM6TGJT9_a-93" value="Pedido realizado e Carrinho foi limpo" style="text;html=1;align=center;verticalAlign=middle;whiteSpace=wrap;rounded=0;" parent="1" vertex="1">
          <mxGeometry x="145" y="870" width="120" height="30" as="geometry" />
        </mxCell>
        <mxCell id="QOASo2jxXxJM6TGJT9_a-110" value="" style="endArrow=classic;html=1;rounded=0;" parent="1" edge="1">
          <mxGeometry width="50" height="50" relative="1" as="geometry">
            <mxPoint x="70" y="960" as="sourcePoint" />
            <mxPoint x="335" y="960" as="targetPoint" />
          </mxGeometry>
        </mxCell>
        <mxCell id="QOASo2jxXxJM6TGJT9_a-111" value="Ver Pedidos" style="text;html=1;align=center;verticalAlign=middle;whiteSpace=wrap;rounded=0;" parent="1" vertex="1">
          <mxGeometry x="135" y="930" width="120" height="30" as="geometry" />
        </mxCell>
        <mxCell id="QOASo2jxXxJM6TGJT9_a-112" value="" style="endArrow=classic;html=1;rounded=0;entryX=0.026;entryY=0.364;entryDx=0;entryDy=0;entryPerimeter=0;" parent="1" edge="1">
          <mxGeometry width="50" height="50" relative="1" as="geometry">
            <mxPoint x="344.74" y="980" as="sourcePoint" />
            <mxPoint x="1494.9999999999998" y="980.02" as="targetPoint" />
          </mxGeometry>
        </mxCell>
        <mxCell id="QOASo2jxXxJM6TGJT9_a-113" value="" style="endArrow=classic;html=1;rounded=0;entryX=0.876;entryY=0.096;entryDx=0;entryDy=0;entryPerimeter=0;exitX=0;exitY=0.75;exitDx=0;exitDy=0;" parent="1" edge="1">
          <mxGeometry width="50" height="50" relative="1" as="geometry">
            <mxPoint x="1495" y="1001.25" as="sourcePoint" />
            <mxPoint x="345" y="1000" as="targetPoint" />
          </mxGeometry>
        </mxCell>
        <mxCell id="QOASo2jxXxJM6TGJT9_a-114" value="" style="endArrow=classic;html=1;rounded=0;" parent="1" edge="1">
          <mxGeometry width="50" height="50" relative="1" as="geometry">
            <mxPoint x="335" y="1010" as="sourcePoint" />
            <mxPoint x="70" y="1010" as="targetPoint" />
          </mxGeometry>
        </mxCell>
        <mxCell id="QOASo2jxXxJM6TGJT9_a-115" value="Lista de Pedidos" style="text;html=1;align=center;verticalAlign=middle;whiteSpace=wrap;rounded=0;" parent="1" vertex="1">
          <mxGeometry x="135" y="970" width="120" height="30" as="geometry" />
        </mxCell>
        <mxCell id="GmzhZIqiybvobirWpcPO-2" value="" style="endArrow=none;html=1;rounded=0;entryX=0.5;entryY=1;entryDx=0;entryDy=0;exitX=0.5;exitY=0;exitDx=0;exitDy=0;fillColor=#dae8fc;strokeColor=#6c8ebf;" edge="1" parent="1" source="GmzhZIqiybvobirWpcPO-5">
          <mxGeometry width="50" height="50" relative="1" as="geometry">
            <mxPoint x="639.4100000000001" y="1115" as="sourcePoint" />
            <mxPoint x="639.4100000000001" y="70" as="targetPoint" />
          </mxGeometry>
        </mxCell>
        <mxCell id="GmzhZIqiybvobirWpcPO-3" value="&lt;h3&gt;&lt;font style=&quot;font-size: 14px;&quot;&gt;IdentityServer&lt;/font&gt;&lt;/h3&gt;" style="rounded=1;whiteSpace=wrap;html=1;fillColor=#eeeeee;strokeColor=#36393d;" vertex="1" parent="1">
          <mxGeometry x="575" y="1115" width="130" height="35" as="geometry" />
        </mxCell>
        <mxCell id="GmzhZIqiybvobirWpcPO-4" value="&lt;h3&gt;&lt;font style=&quot;font-size: 14px;&quot;&gt;IdentityServer&lt;/font&gt;&lt;/h3&gt;" style="rounded=1;whiteSpace=wrap;html=1;fillColor=#eeeeee;strokeColor=#36393d;" vertex="1" parent="1">
          <mxGeometry x="575" y="32.5" width="130" height="35" as="geometry" />
        </mxCell>
        <mxCell id="GmzhZIqiybvobirWpcPO-6" value="" style="endArrow=none;html=1;rounded=0;entryX=0.5;entryY=1;entryDx=0;entryDy=0;exitX=0.5;exitY=0;exitDx=0;exitDy=0;fillColor=#dae8fc;strokeColor=#6c8ebf;" edge="1" parent="1" target="GmzhZIqiybvobirWpcPO-5">
          <mxGeometry width="50" height="50" relative="1" as="geometry">
            <mxPoint x="639.4100000000001" y="1115" as="sourcePoint" />
            <mxPoint x="639.4100000000001" y="70" as="targetPoint" />
          </mxGeometry>
        </mxCell>
        <mxCell id="GmzhZIqiybvobirWpcPO-5" value="" style="rounded=1;whiteSpace=wrap;html=1;fillColor=#4B0082;strokeColor=#9673a6;" vertex="1" parent="1">
          <mxGeometry x="635" y="110" width="10" height="140" as="geometry" />
        </mxCell>
        <mxCell id="GmzhZIqiybvobirWpcPO-7" value="" style="endArrow=classic;html=1;rounded=0;entryX=0.093;entryY=0.142;entryDx=0;entryDy=0;entryPerimeter=0;" edge="1" parent="1">
          <mxGeometry width="50" height="50" relative="1" as="geometry">
            <mxPoint x="345" y="220.12" as="sourcePoint" />
            <mxPoint x="635.9299999999998" y="220.00000000000006" as="targetPoint" />
          </mxGeometry>
        </mxCell>
        <mxCell id="GmzhZIqiybvobirWpcPO-8" value="" style="endArrow=classic;html=1;rounded=0;entryX=0.876;entryY=0.096;entryDx=0;entryDy=0;entryPerimeter=0;exitX=0.093;exitY=0.286;exitDx=0;exitDy=0;exitPerimeter=0;" edge="1" parent="1">
          <mxGeometry width="50" height="50" relative="1" as="geometry">
            <mxPoint x="636" y="240" as="sourcePoint" />
            <mxPoint x="345" y="240" as="targetPoint" />
          </mxGeometry>
        </mxCell>
        <mxCell id="GmzhZIqiybvobirWpcPO-10" value="" style="endArrow=none;html=1;rounded=0;entryX=0.5;entryY=1;entryDx=0;entryDy=0;exitX=0.5;exitY=0;exitDx=0;exitDy=0;fillColor=#dae8fc;strokeColor=#6c8ebf;" edge="1" parent="1" source="GmzhZIqiybvobirWpcPO-14" target="GmzhZIqiybvobirWpcPO-12">
          <mxGeometry width="50" height="50" relative="1" as="geometry">
            <mxPoint x="919.4100000000001" y="1115" as="sourcePoint" />
            <mxPoint x="919.4100000000001" y="70" as="targetPoint" />
          </mxGeometry>
        </mxCell>
        <mxCell id="GmzhZIqiybvobirWpcPO-11" value="&lt;h3&gt;&lt;font style=&quot;font-size: 14px;&quot;&gt;ProductAPI&lt;/font&gt;&lt;/h3&gt;" style="rounded=1;whiteSpace=wrap;html=1;fillColor=#eeeeee;strokeColor=#36393d;" vertex="1" parent="1">
          <mxGeometry x="855" y="1070" width="130" height="35" as="geometry" />
        </mxCell>
        <mxCell id="GmzhZIqiybvobirWpcPO-12" value="&lt;h3&gt;&lt;font style=&quot;font-size: 14px;&quot;&gt;ProductAPI&lt;/font&gt;&lt;/h3&gt;" style="rounded=1;whiteSpace=wrap;html=1;fillColor=#eeeeee;strokeColor=#36393d;" vertex="1" parent="1">
          <mxGeometry x="855" y="60" width="130" height="35" as="geometry" />
        </mxCell>
        <mxCell id="GmzhZIqiybvobirWpcPO-13" value="" style="endArrow=none;html=1;rounded=0;entryX=0.5;entryY=1;entryDx=0;entryDy=0;fillColor=#dae8fc;strokeColor=#6c8ebf;" edge="1" parent="1" target="GmzhZIqiybvobirWpcPO-14" source="GmzhZIqiybvobirWpcPO-11">
          <mxGeometry width="50" height="50" relative="1" as="geometry">
            <mxPoint x="920" y="1070" as="sourcePoint" />
            <mxPoint x="919.4100000000001" y="70" as="targetPoint" />
          </mxGeometry>
        </mxCell>
        <mxCell id="GmzhZIqiybvobirWpcPO-14" value="" style="rounded=1;whiteSpace=wrap;html=1;fillColor=#4B0082;strokeColor=#9673a6;" vertex="1" parent="1">
          <mxGeometry x="915" y="290" width="10" height="160" as="geometry" />
        </mxCell>
        <mxCell id="GmzhZIqiybvobirWpcPO-15" value="" style="endArrow=classic;html=1;rounded=0;entryX=0;entryY=0.75;entryDx=0;entryDy=0;" edge="1" parent="1" target="GmzhZIqiybvobirWpcPO-14">
          <mxGeometry width="50" height="50" relative="1" as="geometry">
            <mxPoint x="346" y="410" as="sourcePoint" />
            <mxPoint x="835" y="410" as="targetPoint" />
          </mxGeometry>
        </mxCell>
        <mxCell id="GmzhZIqiybvobirWpcPO-16" value="" style="endArrow=classic;html=1;rounded=0;entryX=0.876;entryY=0.096;entryDx=0;entryDy=0;entryPerimeter=0;exitX=0.5;exitY=0.938;exitDx=0;exitDy=0;exitPerimeter=0;" edge="1" parent="1" source="GmzhZIqiybvobirWpcPO-14">
          <mxGeometry width="50" height="50" relative="1" as="geometry">
            <mxPoint x="838" y="440.56" as="sourcePoint" />
            <mxPoint x="345" y="440" as="targetPoint" />
          </mxGeometry>
        </mxCell>
        <object placeholders="1" c4Name="API Gateway" c4Type="ContainerScopeBoundary" c4Application="Ocelot" label="&lt;font style=&quot;font-size: 16px&quot;&gt;&lt;b&gt;&lt;div style=&quot;text-align: left&quot;&gt;%c4Name%&lt;/div&gt;&lt;/b&gt;&lt;/font&gt;&lt;div style=&quot;text-align: left&quot;&gt;[%c4Application%]&lt;/div&gt;" id="GmzhZIqiybvobirWpcPO-18">
          <mxCell style="rounded=1;fontSize=11;whiteSpace=wrap;html=1;dashed=1;arcSize=20;fillColor=none;strokeColor=#666666;fontColor=#333333;labelBackgroundColor=none;align=left;verticalAlign=bottom;labelBorderColor=none;spacingTop=0;spacing=10;dashPattern=8 4;metaEdit=1;rotatable=0;perimeter=rectanglePerimeter;noLabel=0;labelPadding=0;allowArrows=0;connectable=0;expand=0;recursiveResize=0;editable=1;pointerEvents=0;absoluteArcSize=1;points=[[0.25,0,0],[0.5,0,0],[0.75,0,0],[1,0.25,0],[1,0.5,0],[1,0.75,0],[0.75,1,0],[0.5,1,0],[0.25,1,0],[0,0.75,0],[0,0.5,0],[0,0.25,0]];" vertex="1" parent="1">
            <mxGeometry x="760" y="20" width="1220" height="1149" as="geometry" />
          </mxCell>
        </object>
        <mxCell id="QOASo2jxXxJM6TGJT9_a-35" value="&lt;div&gt;&lt;font style=&quot;font-size: 12px;&quot;&gt;GET /account/login&lt;/font&gt;&lt;br&gt;&lt;/div&gt;" style="text;html=1;align=center;verticalAlign=middle;whiteSpace=wrap;rounded=0;" parent="1" vertex="1">
          <mxGeometry x="480" y="190" width="115" height="30" as="geometry" />
        </mxCell>
        <mxCell id="QOASo2jxXxJM6TGJT9_a-24" value="POST /account/register" style="text;html=1;align=center;verticalAlign=middle;whiteSpace=wrap;rounded=0;" parent="1" vertex="1">
          <mxGeometry x="472.5" y="100" width="130" height="30" as="geometry" />
        </mxCell>
        <mxCell id="GmzhZIqiybvobirWpcPO-22" value="" style="endArrow=none;html=1;rounded=0;entryX=0.5;entryY=1;entryDx=0;entryDy=0;exitX=0.5;exitY=0;exitDx=0;exitDy=0;fillColor=#dae8fc;strokeColor=#6c8ebf;" edge="1" parent="1" source="GmzhZIqiybvobirWpcPO-26" target="GmzhZIqiybvobirWpcPO-24">
          <mxGeometry width="50" height="50" relative="1" as="geometry">
            <mxPoint x="1119.41" y="1115" as="sourcePoint" />
            <mxPoint x="1119.41" y="70" as="targetPoint" />
          </mxGeometry>
        </mxCell>
        <mxCell id="GmzhZIqiybvobirWpcPO-23" value="&lt;h3&gt;&lt;font style=&quot;font-size: 14px;&quot;&gt;CartAPI&lt;/font&gt;&lt;/h3&gt;" style="rounded=1;whiteSpace=wrap;html=1;fillColor=#eeeeee;strokeColor=#36393d;" vertex="1" parent="1">
          <mxGeometry x="1055" y="1070" width="130" height="35" as="geometry" />
        </mxCell>
        <mxCell id="GmzhZIqiybvobirWpcPO-24" value="&lt;h3&gt;&lt;font style=&quot;font-size: 14px;&quot;&gt;CartAPI&lt;/font&gt;&lt;/h3&gt;" style="rounded=1;whiteSpace=wrap;html=1;fillColor=#eeeeee;strokeColor=#36393d;" vertex="1" parent="1">
          <mxGeometry x="1055" y="60" width="130" height="35" as="geometry" />
        </mxCell>
        <mxCell id="GmzhZIqiybvobirWpcPO-25" value="" style="endArrow=none;html=1;rounded=0;entryX=0.5;entryY=1;entryDx=0;entryDy=0;fillColor=#dae8fc;strokeColor=#6c8ebf;" edge="1" parent="1" source="GmzhZIqiybvobirWpcPO-23" target="GmzhZIqiybvobirWpcPO-26">
          <mxGeometry width="50" height="50" relative="1" as="geometry">
            <mxPoint x="1120" y="1070" as="sourcePoint" />
            <mxPoint x="1119.41" y="70" as="targetPoint" />
          </mxGeometry>
        </mxCell>
        <mxCell id="GmzhZIqiybvobirWpcPO-26" value="" style="rounded=1;whiteSpace=wrap;html=1;fillColor=#4B0082;strokeColor=#9673a6;" vertex="1" parent="1">
          <mxGeometry x="1115" y="510" width="10" height="170" as="geometry" />
        </mxCell>
        <mxCell id="GmzhZIqiybvobirWpcPO-28" value="" style="endArrow=none;html=1;rounded=0;entryX=0.5;entryY=1;entryDx=0;entryDy=0;exitX=0.5;exitY=0;exitDx=0;exitDy=0;fillColor=#dae8fc;strokeColor=#6c8ebf;" edge="1" parent="1" source="GmzhZIqiybvobirWpcPO-32" target="GmzhZIqiybvobirWpcPO-30">
          <mxGeometry width="50" height="50" relative="1" as="geometry">
            <mxPoint x="1309.41" y="1115" as="sourcePoint" />
            <mxPoint x="1309.41" y="70" as="targetPoint" />
          </mxGeometry>
        </mxCell>
        <mxCell id="GmzhZIqiybvobirWpcPO-29" value="&lt;h3&gt;&lt;font style=&quot;font-size: 14px;&quot;&gt;CouponAPI&lt;/font&gt;&lt;/h3&gt;" style="rounded=1;whiteSpace=wrap;html=1;fillColor=#eeeeee;strokeColor=#36393d;" vertex="1" parent="1">
          <mxGeometry x="1245" y="1070" width="130" height="35" as="geometry" />
        </mxCell>
        <mxCell id="GmzhZIqiybvobirWpcPO-30" value="&lt;h3&gt;&lt;font style=&quot;font-size: 14px;&quot;&gt;CouponAPI&lt;/font&gt;&lt;/h3&gt;" style="rounded=1;whiteSpace=wrap;html=1;fillColor=#eeeeee;strokeColor=#36393d;" vertex="1" parent="1">
          <mxGeometry x="1245" y="60" width="130" height="35" as="geometry" />
        </mxCell>
        <mxCell id="GmzhZIqiybvobirWpcPO-31" value="" style="endArrow=none;html=1;rounded=0;entryX=0.5;entryY=1;entryDx=0;entryDy=0;fillColor=#dae8fc;strokeColor=#6c8ebf;" edge="1" parent="1" source="GmzhZIqiybvobirWpcPO-29" target="GmzhZIqiybvobirWpcPO-32">
          <mxGeometry width="50" height="50" relative="1" as="geometry">
            <mxPoint x="1310" y="1070" as="sourcePoint" />
            <mxPoint x="1309.41" y="70" as="targetPoint" />
          </mxGeometry>
        </mxCell>
        <mxCell id="GmzhZIqiybvobirWpcPO-32" value="" style="rounded=1;whiteSpace=wrap;html=1;fillColor=#4B0082;strokeColor=#9673a6;" vertex="1" parent="1">
          <mxGeometry x="1305" y="720" width="10" height="70" as="geometry" />
        </mxCell>
        <mxCell id="GmzhZIqiybvobirWpcPO-34" value="" style="rounded=1;whiteSpace=wrap;html=1;fillColor=#4B0082;strokeColor=#9673a6;" vertex="1" parent="1">
          <mxGeometry x="1115" y="815" width="10" height="70" as="geometry" />
        </mxCell>
        <mxCell id="GmzhZIqiybvobirWpcPO-36" value="" style="endArrow=none;html=1;rounded=0;entryX=0.5;entryY=1;entryDx=0;entryDy=0;exitX=0.5;exitY=0;exitDx=0;exitDy=0;fillColor=#dae8fc;strokeColor=#6c8ebf;" edge="1" parent="1" source="GmzhZIqiybvobirWpcPO-40" target="GmzhZIqiybvobirWpcPO-38">
          <mxGeometry width="50" height="50" relative="1" as="geometry">
            <mxPoint x="1499.41" y="1115" as="sourcePoint" />
            <mxPoint x="1499.41" y="70" as="targetPoint" />
          </mxGeometry>
        </mxCell>
        <mxCell id="GmzhZIqiybvobirWpcPO-37" value="&lt;h3&gt;&lt;font style=&quot;font-size: 14px;&quot;&gt;OrderAPI&lt;/font&gt;&lt;/h3&gt;" style="rounded=1;whiteSpace=wrap;html=1;fillColor=#eeeeee;strokeColor=#36393d;" vertex="1" parent="1">
          <mxGeometry x="1435" y="1070" width="130" height="35" as="geometry" />
        </mxCell>
        <mxCell id="GmzhZIqiybvobirWpcPO-38" value="&lt;h3&gt;&lt;font style=&quot;font-size: 14px;&quot;&gt;OrderAPI&lt;/font&gt;&lt;/h3&gt;" style="rounded=1;whiteSpace=wrap;html=1;fillColor=#eeeeee;strokeColor=#36393d;" vertex="1" parent="1">
          <mxGeometry x="1435" y="60" width="130" height="35" as="geometry" />
        </mxCell>
        <mxCell id="GmzhZIqiybvobirWpcPO-39" value="" style="endArrow=none;html=1;rounded=0;entryX=0.5;entryY=1;entryDx=0;entryDy=0;fillColor=#dae8fc;strokeColor=#6c8ebf;" edge="1" parent="1" source="GmzhZIqiybvobirWpcPO-46" target="GmzhZIqiybvobirWpcPO-40">
          <mxGeometry width="50" height="50" relative="1" as="geometry">
            <mxPoint x="1500" y="1070" as="sourcePoint" />
            <mxPoint x="1499.41" y="70" as="targetPoint" />
          </mxGeometry>
        </mxCell>
        <mxCell id="GmzhZIqiybvobirWpcPO-40" value="" style="rounded=1;whiteSpace=wrap;html=1;fillColor=#4B0082;strokeColor=#9673a6;" vertex="1" parent="1">
          <mxGeometry x="1495" y="830" width="10" height="90" as="geometry" />
        </mxCell>
        <mxCell id="GmzhZIqiybvobirWpcPO-47" value="" style="rounded=1;whiteSpace=wrap;html=1;fillColor=#4B0082;strokeColor=#9673a6;" vertex="1" parent="1">
          <mxGeometry x="1115" y="720" width="10" height="70" as="geometry" />
        </mxCell>
        <mxCell id="GmzhZIqiybvobirWpcPO-49" value="POST&amp;nbsp;/api/v1/cart/apply-coupon" style="text;html=1;align=center;verticalAlign=middle;whiteSpace=wrap;rounded=0;" vertex="1" parent="1">
          <mxGeometry x="448.75" y="720" width="177.5" height="30" as="geometry" />
        </mxCell>
        <mxCell id="GmzhZIqiybvobirWpcPO-50" value="" style="endArrow=classic;html=1;rounded=0;exitX=0.694;exitY=0.418;exitDx=0;exitDy=0;exitPerimeter=0;" edge="1" parent="1" source="GmzhZIqiybvobirWpcPO-47">
          <mxGeometry width="50" height="50" relative="1" as="geometry">
            <mxPoint x="1125" y="750" as="sourcePoint" />
            <mxPoint x="1305" y="750" as="targetPoint" />
          </mxGeometry>
        </mxCell>
        <mxCell id="GmzhZIqiybvobirWpcPO-51" value="" style="endArrow=classic;html=1;rounded=0;entryX=1;entryY=0.75;entryDx=0;entryDy=0;exitX=0;exitY=0.75;exitDx=0;exitDy=0;" edge="1" parent="1" source="GmzhZIqiybvobirWpcPO-32" target="GmzhZIqiybvobirWpcPO-47">
          <mxGeometry width="50" height="50" relative="1" as="geometry">
            <mxPoint x="1220" y="773" as="sourcePoint" />
            <mxPoint x="1220" y="690" as="targetPoint" />
          </mxGeometry>
        </mxCell>
        <mxCell id="GmzhZIqiybvobirWpcPO-53" value="" style="endArrow=classic;html=1;rounded=0;exitX=0.694;exitY=0.418;exitDx=0;exitDy=0;exitPerimeter=0;entryX=-0.015;entryY=0.188;entryDx=0;entryDy=0;entryPerimeter=0;" edge="1" parent="1" target="GmzhZIqiybvobirWpcPO-40">
          <mxGeometry width="50" height="50" relative="1" as="geometry">
            <mxPoint x="1125" y="849.5" as="sourcePoint" />
            <mxPoint x="1308" y="850.5" as="targetPoint" />
          </mxGeometry>
        </mxCell>
        <mxCell id="GmzhZIqiybvobirWpcPO-54" value="Publish Order via RabbitMQ" style="text;html=1;align=center;verticalAlign=middle;whiteSpace=wrap;rounded=0;" vertex="1" parent="1">
          <mxGeometry x="1315" y="820" width="170" height="30" as="geometry" />
        </mxCell>
        <mxCell id="GmzhZIqiybvobirWpcPO-55" value="" style="rounded=0;whiteSpace=wrap;html=1;strokeColor=none;fillColor=default;" vertex="1" parent="1">
          <mxGeometry x="1610" y="50" width="160" height="1070" as="geometry" />
        </mxCell>
        <mxCell id="GmzhZIqiybvobirWpcPO-56" value="" style="endArrow=none;html=1;rounded=0;entryX=0.5;entryY=1;entryDx=0;entryDy=0;exitX=0.5;exitY=0;exitDx=0;exitDy=0;fillColor=#dae8fc;strokeColor=#6c8ebf;" edge="1" parent="1" source="GmzhZIqiybvobirWpcPO-60" target="GmzhZIqiybvobirWpcPO-58">
          <mxGeometry width="50" height="50" relative="1" as="geometry">
            <mxPoint x="1689.41" y="1115" as="sourcePoint" />
            <mxPoint x="1689.41" y="70" as="targetPoint" />
          </mxGeometry>
        </mxCell>
        <mxCell id="GmzhZIqiybvobirWpcPO-57" value="&lt;h3&gt;&lt;font style=&quot;font-size: 14px;&quot;&gt;PaymentAPI&lt;/font&gt;&lt;/h3&gt;" style="rounded=1;whiteSpace=wrap;html=1;fillColor=#eeeeee;strokeColor=#36393d;" vertex="1" parent="1">
          <mxGeometry x="1625" y="1070" width="130" height="35" as="geometry" />
        </mxCell>
        <mxCell id="GmzhZIqiybvobirWpcPO-58" value="&lt;h3&gt;&lt;font style=&quot;font-size: 14px;&quot;&gt;PaymentAPI&lt;/font&gt;&lt;/h3&gt;" style="rounded=1;whiteSpace=wrap;html=1;fillColor=#eeeeee;strokeColor=#36393d;" vertex="1" parent="1">
          <mxGeometry x="1625" y="60" width="130" height="35" as="geometry" />
        </mxCell>
        <mxCell id="GmzhZIqiybvobirWpcPO-59" value="" style="endArrow=none;html=1;rounded=0;entryX=0.5;entryY=1;entryDx=0;entryDy=0;fillColor=#dae8fc;strokeColor=#6c8ebf;" edge="1" parent="1" source="GmzhZIqiybvobirWpcPO-57" target="GmzhZIqiybvobirWpcPO-60">
          <mxGeometry width="50" height="50" relative="1" as="geometry">
            <mxPoint x="1690" y="1070" as="sourcePoint" />
            <mxPoint x="1689.41" y="70" as="targetPoint" />
          </mxGeometry>
        </mxCell>
        <mxCell id="GmzhZIqiybvobirWpcPO-60" value="" style="rounded=1;whiteSpace=wrap;html=1;fillColor=#4B0082;strokeColor=#9673a6;" vertex="1" parent="1">
          <mxGeometry x="1685" y="830" width="10" height="40" as="geometry" />
        </mxCell>
        <mxCell id="GmzhZIqiybvobirWpcPO-62" value="" style="rounded=0;whiteSpace=wrap;html=1;strokeColor=none;fillColor=default;" vertex="1" parent="1">
          <mxGeometry x="1800" y="50" width="160" height="1070" as="geometry" />
        </mxCell>
        <mxCell id="GmzhZIqiybvobirWpcPO-63" value="" style="endArrow=none;html=1;rounded=0;entryX=0.5;entryY=1;entryDx=0;entryDy=0;exitX=0.5;exitY=0;exitDx=0;exitDy=0;fillColor=#dae8fc;strokeColor=#6c8ebf;" edge="1" parent="1" source="GmzhZIqiybvobirWpcPO-67" target="GmzhZIqiybvobirWpcPO-65">
          <mxGeometry width="50" height="50" relative="1" as="geometry">
            <mxPoint x="1879.41" y="1115" as="sourcePoint" />
            <mxPoint x="1879.41" y="70" as="targetPoint" />
          </mxGeometry>
        </mxCell>
        <mxCell id="GmzhZIqiybvobirWpcPO-64" value="&lt;h3&gt;&lt;font style=&quot;font-size: 14px;&quot;&gt;EmailAPI&lt;/font&gt;&lt;/h3&gt;" style="rounded=1;whiteSpace=wrap;html=1;fillColor=#eeeeee;strokeColor=#36393d;" vertex="1" parent="1">
          <mxGeometry x="1815" y="1070" width="130" height="35" as="geometry" />
        </mxCell>
        <mxCell id="GmzhZIqiybvobirWpcPO-65" value="&lt;h3&gt;&lt;font style=&quot;font-size: 14px;&quot;&gt;EmailAPI&lt;/font&gt;&lt;/h3&gt;" style="rounded=1;whiteSpace=wrap;html=1;fillColor=#eeeeee;strokeColor=#36393d;" vertex="1" parent="1">
          <mxGeometry x="1815" y="60" width="130" height="35" as="geometry" />
        </mxCell>
        <mxCell id="GmzhZIqiybvobirWpcPO-66" value="" style="endArrow=none;html=1;rounded=0;entryX=0.5;entryY=1;entryDx=0;entryDy=0;fillColor=#dae8fc;strokeColor=#6c8ebf;" edge="1" parent="1" source="GmzhZIqiybvobirWpcPO-64" target="GmzhZIqiybvobirWpcPO-67">
          <mxGeometry width="50" height="50" relative="1" as="geometry">
            <mxPoint x="1880" y="1070" as="sourcePoint" />
            <mxPoint x="1879.41" y="70" as="targetPoint" />
          </mxGeometry>
        </mxCell>
        <mxCell id="GmzhZIqiybvobirWpcPO-67" value="" style="rounded=1;whiteSpace=wrap;html=1;fillColor=#4B0082;strokeColor=#9673a6;" vertex="1" parent="1">
          <mxGeometry x="1875" y="880" width="10" height="40" as="geometry" />
        </mxCell>
        <mxCell id="GmzhZIqiybvobirWpcPO-69" value="" style="endArrow=classic;html=1;rounded=0;exitX=0.694;exitY=0.418;exitDx=0;exitDy=0;exitPerimeter=0;" edge="1" parent="1">
          <mxGeometry width="50" height="50" relative="1" as="geometry">
            <mxPoint x="1505" y="849.5" as="sourcePoint" />
            <mxPoint x="1688" y="850.5" as="targetPoint" />
          </mxGeometry>
        </mxCell>
        <mxCell id="GmzhZIqiybvobirWpcPO-70" value="Request Payment Process via RabbitMQ" style="text;html=1;align=center;verticalAlign=middle;whiteSpace=wrap;rounded=0;" vertex="1" parent="1">
          <mxGeometry x="1505" y="820" width="170" height="30" as="geometry" />
        </mxCell>
        <mxCell id="GmzhZIqiybvobirWpcPO-72" value="" style="endArrow=classic;html=1;rounded=0;entryX=0;entryY=0.5;entryDx=0;entryDy=0;exitX=1;exitY=0.75;exitDx=0;exitDy=0;" edge="1" parent="1" source="GmzhZIqiybvobirWpcPO-40" target="GmzhZIqiybvobirWpcPO-67">
          <mxGeometry width="50" height="50" relative="1" as="geometry">
            <mxPoint x="1505" y="898" as="sourcePoint" />
            <mxPoint x="1688" y="885" as="targetPoint" />
          </mxGeometry>
        </mxCell>
        <mxCell id="GmzhZIqiybvobirWpcPO-74" value="Request Email Sending via RabbitMQ" style="text;html=1;align=center;verticalAlign=middle;whiteSpace=wrap;rounded=0;" vertex="1" parent="1">
          <mxGeometry x="1695" y="870" width="170" height="30" as="geometry" />
        </mxCell>
        <mxCell id="GmzhZIqiybvobirWpcPO-75" value="" style="endArrow=none;html=1;rounded=0;entryX=0.5;entryY=1;entryDx=0;entryDy=0;fillColor=#dae8fc;strokeColor=#6c8ebf;" edge="1" parent="1" source="GmzhZIqiybvobirWpcPO-37" target="GmzhZIqiybvobirWpcPO-46">
          <mxGeometry width="50" height="50" relative="1" as="geometry">
            <mxPoint x="1500" y="1070" as="sourcePoint" />
            <mxPoint x="1500" y="900" as="targetPoint" />
          </mxGeometry>
        </mxCell>
        <mxCell id="GmzhZIqiybvobirWpcPO-46" value="" style="rounded=1;whiteSpace=wrap;html=1;fillColor=#4B0082;strokeColor=#9673a6;" vertex="1" parent="1">
          <mxGeometry x="1495" y="970" width="10" height="45" as="geometry" />
        </mxCell>
        <mxCell id="GmzhZIqiybvobirWpcPO-94" value="" style="rounded=1;whiteSpace=wrap;html=1;fillColor=#ffcc99;strokeColor=#36393d;" vertex="1" parent="1">
          <mxGeometry x="2155" y="880" width="120" height="40" as="geometry" />
        </mxCell>
        <mxCell id="GmzhZIqiybvobirWpcPO-95" value="&lt;h3&gt;&lt;font style=&quot;font-size: 14px;&quot;&gt;ServiÃ§o de Pagamentos&lt;/font&gt;&lt;/h3&gt;" style="text;html=1;align=center;verticalAlign=middle;whiteSpace=wrap;rounded=0;" vertex="1" parent="1">
          <mxGeometry x="2165" y="885" width="100" height="30" as="geometry" />
        </mxCell>
        <mxCell id="GmzhZIqiybvobirWpcPO-96" value="" style="rounded=1;whiteSpace=wrap;html=1;fillColor=#eeeeee;strokeColor=#36393d;" vertex="1" parent="1">
          <mxGeometry x="2010" y="830" width="120" height="40" as="geometry" />
        </mxCell>
        <mxCell id="GmzhZIqiybvobirWpcPO-97" value="&lt;h3&gt;&lt;font style=&quot;font-size: 14px;&quot;&gt;ServiÃ§o de Email&lt;/font&gt;&lt;/h3&gt;" style="text;html=1;align=center;verticalAlign=middle;whiteSpace=wrap;rounded=0;" vertex="1" parent="1">
          <mxGeometry x="2022.5" y="835" width="95" height="30" as="geometry" />
        </mxCell>
        <mxCell id="GmzhZIqiybvobirWpcPO-98" value="" style="verticalLabelPosition=bottom;shadow=0;dashed=0;align=center;html=1;verticalAlign=top;strokeWidth=1;shape=mxgraph.mockup.misc.mail2;strokeColor=#999999;" vertex="1" parent="1">
          <mxGeometry x="2112.5" y="820" width="42.5" height="25" as="geometry" />
        </mxCell>
        <mxCell id="GmzhZIqiybvobirWpcPO-99" value="" style="image;html=1;image=img/lib/clip_art/finance/Credit_Card_128x128.png" vertex="1" parent="1">
          <mxGeometry x="2250" y="870" width="60" height="32.5" as="geometry" />
        </mxCell>
        <mxCell id="GmzhZIqiybvobirWpcPO-100" value="" style="endArrow=classic;html=1;rounded=0;entryX=0;entryY=0.5;entryDx=0;entryDy=0;exitX=1;exitY=0.5;exitDx=0;exitDy=0;" edge="1" parent="1" source="GmzhZIqiybvobirWpcPO-60" target="GmzhZIqiybvobirWpcPO-96">
          <mxGeometry width="50" height="50" relative="1" as="geometry">
            <mxPoint x="1730" y="847.5" as="sourcePoint" />
            <mxPoint x="2100" y="849.5" as="targetPoint" />
          </mxGeometry>
        </mxCell>
        <mxCell id="GmzhZIqiybvobirWpcPO-101" value="" style="endArrow=classic;html=1;rounded=0;entryX=0;entryY=0.5;entryDx=0;entryDy=0;exitX=1;exitY=0.5;exitDx=0;exitDy=0;" edge="1" parent="1" source="GmzhZIqiybvobirWpcPO-67" target="GmzhZIqiybvobirWpcPO-94">
          <mxGeometry width="50" height="50" relative="1" as="geometry">
            <mxPoint x="1910" y="899.31" as="sourcePoint" />
            <mxPoint x="2225" y="899.31" as="targetPoint" />
          </mxGeometry>
        </mxCell>
      </root>
    </mxGraphModel>
  </diagram>
</mxfile>
